<svg width="144" height="839" viewBox="0 0 144 839" fill="none" xmlns="http://www.w3.org/2000/svg">
<path d="M37.48 832.96H33.88V836.6H15.4V832.96H11.76L11.76 821.68H15.4V818H23V822.08H15.8L15.8 832.56H33.48V822.08H30.24V825.68H26.6V829.36H22.64V825.28H26.2V818H33.88V821.68H37.48V832.96ZM37.48 813.162H22.64L22.64 809.522H19V798.242H22.64V794.562H26.6V798.642H23V809.122H37.48V813.162ZM37.48 787.296H33.88V790.936H22.64V787.296H19V776.016H22.64V772.336H26.6V776.416H23V786.896H26.2V779.616H30.24V786.896H33.48L33.48 776.416H29.8V772.336H33.84V776.016H37.48L37.48 787.296ZM37.48 767.498H19V752.578H22.64L22.64 748.898H37.48V752.978H23V763.458H37.48V767.498ZM37.48 741.632H33.88V745.272H22.64V741.632H19V730.352H22.64V726.672H33.48V723.032H37.48V727.072H33.88V730.352H37.48V741.632ZM33.48 741.232V730.752H23V741.232H33.48ZM37.48 716.554H33.88V720.194H22.64V716.554H19V705.634H11.76V701.594H33.88V705.274H37.48V716.554ZM33.48 716.154V705.674H23V716.154H33.48ZM37.48 696.756H19L19 692.716H37.48V696.756ZM15.8 696.756H11.76V692.716H15.8V696.756ZM37.48 688.67H19V673.75H22.64V670.07H37.48V674.15H23V684.63H37.48V688.67ZM37.48 662.804H33.88L33.88 666.444H22.64V662.804H19V651.524H22.64V647.844H26.6V651.924H23V662.404H26.2V655.124H30.24V662.404H33.48V651.924H29.8V647.844H33.84V651.524H37.48V662.804ZM37.48 631.358H33.88V634.998H15.4V631.358H11.76L11.76 620.078H15.4V616.398H23V620.078H26.2V616.398H33.88V620.078H37.48V631.358ZM33.48 630.958V620.478H26.6V627.758H22.64V620.478H15.8L15.8 630.958H33.48ZM37.48 608.702H33.88V612.342H22.64V608.702H19V597.422H22.64V593.742H33.48V590.102H37.48V594.142H33.88V597.422H37.48V608.702ZM33.48 608.302V597.822H23V608.302H33.48ZM37.48 586.483H11.76V582.443H37.48V586.483ZM37.48 574.757H33.88V578.397H22.64L22.64 574.757H19V563.477H22.64V559.797H33.48V556.157H37.48V560.197H33.88V563.477H37.48V574.757ZM33.48 574.357V563.877H23V574.357H33.48ZM37.48 552.537H19V537.617H22.64V533.937H37.48V538.017H23V548.497H37.48L37.48 552.537ZM37.48 526.241H33.88V529.881H22.64V526.241H19L19 514.961H22.64V511.281H26.6V515.361H23L23 525.841H33.48V515.361H29.84V511.281H33.88V514.961H37.48V526.241ZM37.48 504.015H33.88V507.655H22.64V504.015H19V492.735H22.64V489.055H26.6V493.135H23V503.615H26.2V496.335H30.24V503.615H33.48V493.135H29.8V489.055H33.84V492.735H37.48V504.015Z" fill="white"/>
<rect x="69.5" y="7.5" width="67" height="824" rx="33.5" stroke="white" stroke-width="15"/>
<line x1="104" y1="583" x2="144" y2="583" stroke="white" stroke-width="10"/>
<line x1="104" y1="795" x2="144" y2="795" stroke="white" stroke-width="10"/>
<line x1="104" y1="689" x2="144" y2="689" stroke="white" stroke-width="10"/>
<line x1="104" y1="477" x2="144" y2="477" stroke="white" stroke-width="10"/>
<line x1="104" y1="371" x2="144" y2="371" stroke="white" stroke-width="10"/>
<line x1="104" y1="265" x2="144" y2="265" stroke="white" stroke-width="10"/>
<line x1="104" y1="159" x2="144" y2="159" stroke="white" stroke-width="10"/>
<line x1="104" y1="53" x2="144" y2="53" stroke="white" stroke-width="10"/>
</svg>
