<svg width="1440" height="109" viewBox="0 0 1440 109" fill="none" xmlns="http://www.w3.org/2000/svg">
<path d="M0 0V106.834C0 106.834 46.6098 83.4667 82.5 83.319C118.917 83.1691 130.99 102.143 166.5 106.834C201.723 111.487 231.876 83.319 268 83.319C325.993 83.319 351.366 102.084 407.5 106.834C466.432 111.821 498.386 82.8295 560 83.319C618.6 83.7846 648.069 106.834 704.5 106.834C765.227 106.834 815.773 80.1256 876.5 80.1256C946.99 80.1256 972.864 118.361 1040.5 106.834C1080.05 100.094 1094.31 81.0564 1135.5 80.1256C1180.32 79.1127 1195.91 106.235 1240.75 106.834C1281.96 107.385 1299.28 86.8579 1340.5 86.8027C1382 86.7471 1441 106.834 1441 106.834V0H0Z" fill="#D9D9D9"/>
</svg>
