<?xml version="1.0" encoding="UTF-8" standalone="no"?>
<!-- Created with Inkscape (http://www.inkscape.org/) -->

<svg
   xmlns:dc="http://purl.org/dc/elements/1.1/"
   xmlns:cc="http://creativecommons.org/ns#"
   xmlns:rdf="http://www.w3.org/1999/02/22-rdf-syntax-ns#"
   xmlns:svg="http://www.w3.org/2000/svg"
   xmlns="http://www.w3.org/2000/svg"
   xmlns:sodipodi="http://sodipodi.sourceforge.net/DTD/sodipodi-0.dtd"
   xmlns:inkscape="http://www.inkscape.org/namespaces/inkscape"
   width="5000"
   height="5000"
   viewBox="0 0 5000 5000"
   version="1.1"
   id="svg8"
   inkscape:version="0.92.4 (5da689c313, 2019-01-14)"
   sodipodi:docname="Warning.svg">
  <defs
     id="defs2">
    <clipPath
       id="clipPath828"
       clipPathUnits="userSpaceOnUse">
      <path
         inkscape:connector-curvature="0"
         id="path826"
         d="M 0,800 H 800 V 0 H 0 Z" />
    </clipPath>
  </defs>
  <sodipodi:namedview
     id="base"
     pagecolor="#ffffff"
     bordercolor="#666666"
     borderopacity="1.0"
     inkscape:pageopacity="1"
     inkscape:pageshadow="2"
     inkscape:zoom="0.0875"
     inkscape:cx="2381.4697"
     inkscape:cy="1114.5157"
     inkscape:document-units="px"
     inkscape:current-layer="layer1"
     showgrid="false"
     units="px"
     borderlayer="true"
     inkscape:showpageshadow="false"
     inkscape:window-width="1920"
     inkscape:window-height="1013"
     inkscape:window-x="-9"
     inkscape:window-y="-9"
     inkscape:window-maximized="1"
     inkscape:snap-object-midpoints="true"
     inkscape:snap-page="true"
     inkscape:snap-midpoints="true"
     inkscape:snap-global="false" />
  <metadata
     id="metadata5">
    <rdf:RDF>
      <cc:Work
         rdf:about="">
        <dc:format>image/svg+xml</dc:format>
        <dc:type
           rdf:resource="http://purl.org/dc/dcmitype/StillImage" />
        <dc:title></dc:title>
      </cc:Work>
    </rdf:RDF>
  </metadata>
  <g
     inkscape:label="Layer 1"
     inkscape:groupmode="layer"
     id="layer1"
     transform="translate(0,4335.2917)">
    <g
       transform="matrix(10.951415,0,0,-10.951415,-1877.949,2544.0228)"
       inkscape:label="warning"
       id="g820">
      <g
         id="g822">
        <g
           clip-path="url(#clipPath828)"
           id="g824">
          <g
             transform="translate(249.5,254.7043)"
             id="g830">
            <path
               inkscape:connector-curvature="0"
               id="path832"
               style="fill:#333333;fill-opacity:1;fill-rule:nonzero;stroke:none"
               d="m 0,0 c -2.524,0 -3.5,-1.262 -3.5,-3.506 v -40.676 l -1.329,-3.522 h -3.016 l -2.655,3.522 v 22.091 c 0,2.174 -0.976,4.138 -3.5,4.138 -2.524,0 -3.5,-1.964 -3.5,-4.138 v -22.091 l -1.145,-3.522 h -3.015 l -2.84,3.522 V -3.506 C -24.5,-1.262 -25.476,0 -28,0 c -2.525,0 -3.5,-1.262 -3.5,-3.506 v -40.676 c 0,-1.893 0.537,-2.033 1.448,-3.576 l 2.688,-4.35 c 1.193,-2.104 2.057,-2.596 4.511,-2.596 h 5.26 c 2.384,0 3.787,0 4.278,3 h 0.141 c 0.49,-3 1.893,-3 4.277,-3 h 5.26 c 2.455,0 3.086,0.492 4.278,2.596 l 2.166,4.314 c 0.912,1.543 0.693,1.719 0.693,3.612 V -3.506 C 3.5,-1.262 2.525,0 0,0" />
          </g>
          <g
             transform="translate(284.7083,219)"
             id="g834">
            <path
               inkscape:connector-curvature="0"
               id="path836"
               style="fill:#333333;fill-opacity:1;fill-rule:nonzero;stroke:none"
               d="m 0,0 5.47,19 h 0.14 l 5.4,-19 z m 9.187,32.128 c -0.491,1.823 -1.333,3.576 -3.647,3.576 -2.244,0 -3.016,-1.682 -3.577,-3.576 l -13.745,-47.477 c -0.491,-1.684 1.403,-3.507 3.366,-3.507 2.174,0 3.296,1.79 3.787,3.474 L -1.964,-7 h 14.938 l 2.594,-8.382 c 0.492,-1.684 1.614,-3.491 3.787,-3.491 1.964,0 3.858,1.832 3.367,3.515 z" />
          </g>
          <g
             transform="translate(354,239.6965)"
             id="g838">
            <path
               inkscape:connector-curvature="0"
               id="path840"
               style="fill:#333333;fill-opacity:1;fill-rule:nonzero;stroke:none"
               d="M 0,0 C 0,-2.805 -2.535,-2.697 -4.499,-2.697 H -21 v 10 H -4.428 C -2.325,7.303 0,7.645 0,4.839 Z M -3.517,14.303 H -28 v -50.349 c 0,-2.244 0.975,-3.507 3.5,-3.507 2.524,0 3.5,1.263 3.5,3.507 v 26.349 h 2.545 L 0.901,-37.458 c 0.772,-1.122 1.683,-2.029 3.086,-2.029 1.964,0 3.576,1.299 3.576,3.263 0,1.333 -0.981,2.779 -1.753,3.831 L -9.969,-9.697 h 6.452 C 2.094,-9.697 7,-6.592 7,0 v 4.839 c 0,6.242 -4.977,9.464 -10.517,9.464" />
          </g>
          <g
             transform="translate(411.8073,254.634)"
             id="g842">
            <path
               inkscape:connector-curvature="0"
               id="path844"
               style="fill:#333333;fill-opacity:1;fill-rule:nonzero;stroke:none"
               d="m 0,0 c -2.524,0 -3.35,-1.33 -3.35,-3.574 l 0.086,-39.06 h -0.069 -0.071 0.071 l -18.305,42 h -10.169 v -50.349 c 0,-2.245 0.975,-3.507 3.5,-3.507 2.524,0 3.5,1.262 3.5,3.507 v 38.349 h 1 v 0.152 L -5.438,-54.634 H 3.193 V -3.506 C 3.193,-1.262 2.524,0 0,0" />
          </g>
          <g
             transform="translate(455,247)"
             id="g846">
            <path
               inkscape:connector-curvature="0"
               id="path848"
               style="fill:#333333;fill-opacity:1;fill-rule:nonzero;stroke:none"
               d="m 0,0 h 11.043 c 1.659,0 3.186,1 3.451,3 H 12 V 4 H -2 v 2 h 10.478 5.315 c -0.17,1 -0.365,1 -0.579,1 H 9.478 -16.589 c -1.823,0 -3.505,-0.975 -3.505,-3.5 0,-2.525 1.682,-3.5 3.505,-3.5 H -7 v -4 h 7 z" />
          </g>
          <g
             transform="translate(451,239)"
             id="g850">
            <path
               inkscape:connector-curvature="0"
               id="path852"
               style="fill:#333333;fill-opacity:1;fill-rule:nonzero;stroke:none"
               d="m 0,0 h 4 v 2 h -7 v -34 h -9.589 c -1.823,0 -3.505,-0.975 -3.505,-3.5 0,-2.525 1.682,-3.5 3.505,-3.5 h 27.632 c 1.824,0 3.506,0.975 3.506,3.5 0,2.525 -1.682,3.5 -3.506,3.5 H 4 V -2 H 0 Z" />
          </g>
          <g
             transform="translate(497.0892,240)"
             id="g854">
            <path
               inkscape:connector-curvature="0"
               id="path856"
               style="fill:#333333;fill-opacity:1;fill-rule:nonzero;stroke:none"
               d="M 0,0 0.092,-1 H 7.58 L 7.489,0 Z" />
          </g>
          <g
             transform="translate(499.9354,250)"
             id="g858">
            <path
               inkscape:connector-curvature="0"
               id="path860"
               style="fill:#333333;fill-opacity:1;fill-rule:nonzero;stroke:none"
               d="M 0,0 H -11.935 V -5 H 2.082 Z" />
          </g>
          <g
             transform="translate(488,203.6506)"
             id="g862">
            <path
               inkscape:connector-curvature="0"
               id="path864"
               style="fill:#333333;fill-opacity:1;fill-rule:nonzero;stroke:none"
               d="M 0,0 C 0,-2.244 0.975,-3.507 3.5,-3.507 6.025,-3.507 7,-2.244 7,0 V 24.349 H 0 Z" />
          </g>
          <path
             inkscape:connector-curvature="0"
             id="path866"
             style="fill:#333333;fill-opacity:1;fill-rule:nonzero;stroke:none"
             d="m 495,237 h -7 v -2 h 7 z" />
          <g
             transform="translate(516.5902,245)"
             id="g868">
            <path
               inkscape:connector-curvature="0"
               id="path870"
               style="fill:#333333;fill-opacity:1;fill-rule:nonzero;stroke:none"
               d="M 0,0 H 6.41 V 5 H 0.009 Z" />
          </g>
          <g
             transform="translate(518,220)"
             id="g872">
            <path
               inkscape:connector-curvature="0"
               id="path874"
               style="fill:#333333;fill-opacity:1;fill-rule:nonzero;stroke:none"
               d="M 0,0 H 5 V 2 H -1.452 L -1.47,-8 h -0.071 -0.07 0.07 L -6.021,2 H -11 v 2 h 4.119 l -1.72,4 h -7.433 l 12.39,-28 H 5 V -2 H 0 Z" />
          </g>
          <path
             inkscape:connector-curvature="0"
             id="path876"
             style="fill:#333333;fill-opacity:1;fill-rule:nonzero;stroke:none"
             d="m 495,233 h -7 v -3 h 7 z" />
          <path
             inkscape:connector-curvature="0"
             id="path878"
             style="fill:#333333;fill-opacity:1;fill-rule:nonzero;stroke:none"
             d="m 516,239 h 7 v 1 h -7 z" />
          <g
             transform="translate(516.5709,235)"
             id="g880">
            <path
               inkscape:connector-curvature="0"
               id="path882"
               style="fill:#333333;fill-opacity:1;fill-rule:nonzero;stroke:none"
               d="M 0,0 H 6.429 V 2 H 0.004 Z" />
          </g>
          <g
             transform="translate(505.6009,237)"
             id="g884">
            <path
               inkscape:connector-curvature="0"
               id="path886"
               style="fill:#333333;fill-opacity:1;fill-rule:nonzero;stroke:none"
               d="m 0,0 h -7.477 l 1.015,-2 h 7.465 z" />
          </g>
          <g
             transform="translate(516.5592,228)"
             id="g888">
            <path
               inkscape:connector-curvature="0"
               id="path890"
               style="fill:#333333;fill-opacity:1;fill-rule:nonzero;stroke:none"
               d="M 0,0 -0.007,-4 H 6.441 V 0 Z" />
          </g>
          <g
             transform="translate(523,233)"
             id="g892">
            <path
               inkscape:connector-curvature="0"
               id="path894"
               style="fill:#333333;fill-opacity:1;fill-rule:nonzero;stroke:none"
               d="M 0,0 H -6.433 L -6.437,-3 H 0 Z" />
          </g>
          <g
             transform="translate(498.6495,253)"
             id="g896">
            <path
               inkscape:connector-curvature="0"
               id="path898"
               style="fill:#333333;fill-opacity:1;fill-rule:nonzero;stroke:none"
               d="M 0,0 -0.226,1 H -10.65 V 0 Z" />
          </g>
          <g
             transform="translate(500.0086,233)"
             id="g900">
            <path
               inkscape:connector-curvature="0"
               id="path902"
               style="fill:#333333;fill-opacity:1;fill-rule:nonzero;stroke:none"
               d="M 0,0 1.088,-3 H 8.53 L 7.455,0 Z" />
          </g>
          <g
             transform="translate(517.285,253)"
             id="g904">
            <path
               inkscape:connector-curvature="0"
               id="path906"
               style="fill:#333333;fill-opacity:1;fill-rule:nonzero;stroke:none"
               d="M 0,0 H 5.642 C 5.484,1 5.304,1 5.083,1 H 0.559 C 0.339,1 0.158,1 0,0" />
          </g>
          <path
             inkscape:connector-curvature="0"
             id="path908"
             style="fill:#333333;fill-opacity:1;fill-rule:nonzero;stroke:none"
             d="m 495,240 h -7 v -1 h 7 z" />
          <g
             transform="translate(542,224)"
             id="g910">
            <path
               inkscape:connector-curvature="0"
               id="path912"
               style="fill:#333333;fill-opacity:1;fill-rule:nonzero;stroke:none"
               d="M 0,0 H 7 V 1.951 C 7,2.852 7.907,3 7.946,4 H 0 Z" />
          </g>
          <g
             transform="translate(560.2142,221.2407)"
             id="g914">
            <path
               inkscape:connector-curvature="0"
               id="path916"
               style="fill:#333333;fill-opacity:1;fill-rule:nonzero;stroke:none"
               d="m 0,0 c 0,-0.615 0.103,-1.241 0.28,-1.241 h 16.506 v 2 H 0.139 C 0.058,0.759 0,0.409 0,0" />
          </g>
          <g
             transform="translate(558.8834,253)"
             id="g918">
            <path
               inkscape:connector-curvature="0"
               id="path920"
               style="fill:#333333;fill-opacity:1;fill-rule:nonzero;stroke:none"
               d="m 0,0 h 17.896 c -0.17,1 -0.365,1 -0.579,1 H 1.235 C 0.806,1 0.396,1 0,0" />
          </g>
          <g
             transform="translate(543.9026,235)"
             id="g922">
            <path
               inkscape:connector-curvature="0"
               id="path924"
               style="fill:#333333;fill-opacity:1;fill-rule:nonzero;stroke:none"
               d="M 0,0 H 8.167 C 8.17,0 8.172,-0.158 8.176,-0.154 L 9.995,2 H 1.245 C 0.736,1 0.324,1 0,0" />
          </g>
          <g
             transform="translate(570,210.8039)"
             id="g926">
            <path
               inkscape:connector-curvature="0"
               id="path928"
               style="fill:#333333;fill-opacity:1;fill-rule:nonzero;stroke:none"
               d="m 0,0 c 0,-3.086 -1.581,-3.804 -4.106,-3.804 h -11.15 c -3.998,0 -5.744,1.349 -5.744,5.206 v 5.794 h -7 V 0.771 c 0,-3.506 0.936,-6.173 3.742,-8.698 2.454,-2.244 5.285,-2.877 8.51,-2.877 H -3.685 C 2.977,-10.804 7,-6.452 7,0.351 V 7.196 H 0 Z" />
          </g>
          <g
             transform="translate(577,225)"
             id="g930">
            <path
               inkscape:connector-curvature="0"
               id="path932"
               style="fill:#333333;fill-opacity:1;fill-rule:nonzero;stroke:none"
               d="m 0,0 h -13.28 c -0.656,0 -1.292,0 -1.84,-1 H 0 Z" />
          </g>
          <g
             transform="translate(546.7025,239)"
             id="g934">
            <path
               inkscape:connector-curvature="0"
               id="path936"
               style="fill:#333333;fill-opacity:1;fill-rule:nonzero;stroke:none"
               d="M 0,0 H 8.895 L 9.061,1 H 0.165 Z" />
          </g>
          <path
             inkscape:connector-curvature="0"
             id="path938"
             style="fill:#333333;fill-opacity:1;fill-rule:nonzero;stroke:none"
             d="m 542,220 h 7 v 2 h -7 z" />
          <g
             transform="translate(554.8138,249.292)"
             id="g940">
            <path
               inkscape:connector-curvature="0"
               id="path942"
               style="fill:#333333;fill-opacity:1;fill-rule:nonzero;stroke:none"
               d="m 0,0 -3.292,-4.292 h 8.911 c 1.592,3 1.772,2 5.181,2 h 8.416 c 1.658,0 3.186,1 3.451,3 H 0.531 C 0.355,0.708 0.179,0.228 0,0" />
          </g>
          <g
             transform="translate(542.9352,230)"
             id="g944">
            <path
               inkscape:connector-curvature="0"
               id="path946"
               style="fill:#333333;fill-opacity:1;fill-rule:nonzero;stroke:none"
               d="m 0,0 h 7.211 c 0.14,1 0.362,2 0.718,3 H 0.337 C 0.167,2 0.053,1 0,0" />
          </g>
          <path
             inkscape:connector-curvature="0"
             id="path948"
             style="fill:#333333;fill-opacity:1;fill-rule:nonzero;stroke:none"
             d="m 577.811,335.658 h -1.667 v -0.603 h 1.667 z" />
          <g
             transform="translate(578,337)"
             id="g950">
            <path
               inkscape:connector-curvature="0"
               id="path952"
               style="fill:#333333;fill-opacity:1;fill-rule:nonzero;stroke:none"
               d="M 0,0 H -1 V -1 H 12 V 0 Z" />
          </g>
          <g
             transform="translate(526,270)"
             id="g954">
            <path
               inkscape:connector-curvature="0"
               id="path956"
               style="fill:#333333;fill-opacity:1;fill-rule:nonzero;stroke:none"
               d="m 0,0 h 35.76 c 3.188,0 6.144,1 8.786,2 H 0 Z" />
          </g>
          <g
             transform="translate(526,278)"
             id="g958">
            <path
               inkscape:connector-curvature="0"
               id="path960"
               style="fill:#333333;fill-opacity:1;fill-rule:nonzero;stroke:none"
               d="M 0,0 H 12.478 21 v 1 h 32.396 c 0.37,1 0.722,1 1.045,2 H 3 v 2 h 9.478 43.126 c 0.183,0 0.353,1 0.51,1 H 0 Z" />
          </g>
          <g
             transform="translate(416.0599,488.1384)"
             id="g962">
            <path
               inkscape:connector-curvature="0"
               id="path964"
               style="fill:#333333;fill-opacity:1;fill-rule:nonzero;stroke:none"
               d="m 0,0 c -0.099,-1.621 -0.246,-3.56 -0.441,-5.72 l -13.264,-119.418 h -5.601 L -32.274,-5.72 c -0.589,5.107 -0.884,9.013 -0.884,11.665 0,3.045 0.441,5.856 1.326,8.412 0.884,2.554 2.086,4.722 3.61,6.49 1.523,1.769 3.29,3.147 5.306,4.13 2.012,0.981 4.2,1.475 6.558,1.475 4.715,0 8.644,-1.867 11.79,-5.6 C -1.425,17.117 0.147,11.568 0.147,4.199 0.147,3.021 0.097,1.621 0,0 m -1.621,-172.059 c -0.884,-1.966 -2.063,-3.684 -3.536,-5.157 -1.475,-1.475 -3.195,-2.654 -5.158,-3.537 -1.967,-0.885 -4.079,-1.327 -6.337,-1.327 -2.262,0 -4.373,0.442 -6.338,1.327 -1.967,0.883 -3.684,2.062 -5.158,3.537 -1.473,1.473 -2.653,3.191 -3.538,5.157 -0.883,1.965 -1.326,4.076 -1.326,6.338 0,2.259 0.443,4.37 1.326,6.337 0.885,1.964 2.065,3.683 3.538,5.158 1.474,1.474 3.191,2.627 5.158,3.463 1.965,0.834 4.076,1.253 6.338,1.253 2.159,0 4.248,-0.443 6.262,-1.326 2.013,-0.885 3.758,-2.064 5.233,-3.538 1.473,-1.473 2.652,-3.194 3.536,-5.158 0.885,-1.967 1.327,-4.03 1.327,-6.189 0,-2.262 -0.442,-4.373 -1.327,-6.338 m 128.561,-24.079 v 1 h 40.379 c -0.029,0 -0.068,1 -0.124,1 H 104.94 v 2 h 61.896 c -0.47,2 -1.249,4.092 -2.394,6.075 l -5.166,8.925 h 5.664 v 8 h -5 -5.257 -8.743 v -3 h -8 v 3 h -7 v -19 h -21 v 19 h -8 v -6 h -13 v 13 h 13.478 35.522 v 2 h -57 v 2 h 14.478 42.522 v 2 h -70 v 1 h 8 v 1 h 19 v 1 h -18 v 1 h 52 v 1 h -44 v 2 h -12 v 1 h 56 v 1 h -53 v 1 h -5 v 1 h 58 v 3 h -39.522 -19 -2.478 v 1 h 2 v 17 h 19 v -11 h 24 v 16 h 3 v 5 h -10 v 8 h -16 v 22 h 16.049 L -0.84,100.83 c -8.33,14.428 -29.154,14.392 -37.484,-0.035 L -203.606,-185.58 c -8.33,-14.427 2.082,-32.558 18.742,-32.558 H 87.94 v 20 h 22 v -4 h 56.734 c 0.193,1 0.356,2 0.469,3 H 121.94 v 1 h -10 v 2 z" />
          </g>
          <g
             transform="translate(526,274)"
             id="g966">
            <path
               inkscape:connector-curvature="0"
               id="path968"
               style="fill:#333333;fill-opacity:1;fill-rule:nonzero;stroke:none"
               d="m 0,0 h 12 v 1 h 37.868 c 0.348,1 0.686,1 1.013,1 H 0 Z" />
          </g>
          <path
             inkscape:connector-curvature="0"
             id="path970"
             style="fill:#333333;fill-opacity:1;fill-rule:nonzero;stroke:none"
             d="m 529,351 h -24 v -1 h 24 z" />
          <g
             transform="translate(554,321)"
             id="g972">
            <path
               inkscape:connector-curvature="0"
               id="path974"
               style="fill:#333333;fill-opacity:1;fill-rule:nonzero;stroke:none"
               d="M 0,0 V 3 H -36 V 0 h 8 V 1 H -7 V 0 Z" />
          </g>
          <path
             inkscape:connector-curvature="0"
             id="path976"
             style="fill:#333333;fill-opacity:1;fill-rule:nonzero;stroke:none"
             d="m 505,348 h 24 v 1 h -24 z" />
          <g
             transform="translate(548,384)"
             id="g978">
            <path
               inkscape:connector-curvature="0"
               id="path980"
               style="fill:#333333;fill-opacity:1;fill-rule:nonzero;stroke:none"
               d="m 0,0 v 11 h -5 -6 V 0 h 6 z" />
          </g>
          <g
             transform="translate(576,321)"
             id="g982">
            <path
               inkscape:connector-curvature="0"
               id="path984"
               style="fill:#333333;fill-opacity:1;fill-rule:nonzero;stroke:none"
               d="M 0,0 H 5 V 3 H 0 -7.855 -14 V 0 h 7.589 z" />
          </g>
          <g
             transform="translate(576,332)"
             id="g986">
            <path
               inkscape:connector-curvature="0"
               id="path988"
               style="fill:#333333;fill-opacity:1;fill-rule:nonzero;stroke:none"
               d="M 0,0 V -1 H 1 V -2 H 14 V 0 H 1 Z" />
          </g>
          <g
             transform="translate(577,328)"
             id="g990">
            <path
               inkscape:connector-curvature="0"
               id="path992"
               style="fill:#333333;fill-opacity:1;fill-rule:nonzero;stroke:none"
               d="M 0,0 H -1 -11.357 -15 v -2 h 4.99 9.01 1 4 9 V 0 H 4 Z" />
          </g>
          <path
             inkscape:connector-curvature="0"
             id="path994"
             style="fill:#333333;fill-opacity:1;fill-rule:nonzero;stroke:none"
             d="m 581,388 h -9 v -9 h 9 z" />
          <g
             transform="translate(564,381)"
             id="g996">
            <path
               inkscape:connector-curvature="0"
               id="path998"
               style="fill:#333333;fill-opacity:1;fill-rule:nonzero;stroke:none"
               d="m 0,0 h -18 v -5 -7 -6 h 4 4 10 z" />
          </g>
        </g>
      </g>
    </g>
  </g>
</svg>
